<svg width="32" height="32" viewBox="0 0 32 32" fill="none" xmlns="http://www.w3.org/2000/svg">
<path d="M27.4273 15.7579C27.4273 22.0752 22.3062 27.1963 15.9889 27.1963C9.67167 27.1963 4.55053 22.0752 4.55053 15.7579C4.55053 9.44066 9.67167 4.31952 15.9889 4.31952C22.3062 4.31952 27.4273 9.44066 27.4273 15.7579Z" fill="white"/>
<path d="M8.19387 4.65844C7.34658 5.4689 7.50192 7.39801 7.6855 8.21705C10.1935 5.84465 14.0966 4.53135 15.2687 4.44662C14.7604 3.68406 13.7436 2.63692 12.3456 2.66731C10.6934 2.70323 9.16825 3.72642 8.19387 4.65844Z" fill="white"/>
<path d="M4.07527 22.2027C4.75101 23.1609 6.68181 23.2936 7.51903 23.2336C5.54508 20.4013 4.82556 16.3465 4.91571 15.1748C4.08615 15.5644 2.89972 16.4144 2.7223 17.8015C2.51263 19.4407 3.29817 21.1008 4.07527 22.2027Z" fill="white"/>
<path d="M29.3091 14.4565C29.2781 15.6286 27.7448 16.8096 27.0149 17.2239C27.087 13.7724 25.4373 9.99908 24.7126 9.07402C25.619 8.93822 27.0777 8.98777 27.9945 10.0437C29.0779 11.2916 29.3447 13.1086 29.3091 14.4565Z" fill="white"/>
<path d="M13.9119 28.9416C12.7935 28.5895 12.0796 26.7906 11.882 25.9748C15.1806 26.9934 19.2621 26.445 20.3508 26.0026C20.2321 26.9113 19.7834 28.3002 18.5161 28.8912C17.0183 29.5898 15.198 29.3466 13.9119 28.9416Z" fill="white"/>
</svg>
