<svg width="328" height="328" viewBox="0 0 328 328" fill="none" xmlns="http://www.w3.org/2000/svg">
<g clip-path="url(#clip0_150_3056)" filter="url(#filter0_d_150_3056)">
<path d="M164.854 292C241.702 292 304 229.702 304 152.854C304 76.0055 241.702 13.7076 164.854 13.7076C88.0055 13.7076 25.7076 76.0055 25.7076 152.854C25.7076 229.702 88.0055 292 164.854 292Z" fill="url(#paint0_linear_150_3056)"/>
<g style="mix-blend-mode:multiply" opacity="0.5">
<path d="M99.6652 65.9167C98.4188 72.1833 99.0536 80.6308 104.377 82.5155C105.881 82.8362 107.427 82.7893 108.914 82.3777C110.402 81.9662 111.799 81.1992 113.014 80.126C119.939 75.172 125.489 67.9428 132.484 63.1368C139.479 58.3309 149.118 56.4798 155.356 62.5243C162.269 69.2553 161.483 81.9973 157.773 91.515C154.214 98.3694 151.521 105.777 149.776 113.512C149.38 116.76 149.601 120.069 150.425 123.208C151.249 126.347 152.655 129.24 154.546 131.686C156.475 134.095 158.898 135.903 161.592 136.943C164.285 137.983 167.163 138.222 169.957 137.636C174.131 136.346 177.974 133.912 181.163 130.542C187.693 124.392 193.502 117.285 198.443 109.399C207.441 95.0286 215.106 76.7471 229.986 72.3786C234.812 71.1245 239.842 71.4302 244.527 73.2623C249.212 75.0943 253.37 78.382 256.545 82.7646C259.631 87.2278 261.749 92.4794 262.722 98.0811C263.694 103.683 263.493 109.472 262.136 114.966C261.414 118.532 259.847 121.795 257.61 124.39C254.935 126.827 251.79 128.485 248.443 129.222C235.854 131.837 223.519 135.881 211.617 141.298C209.394 142.256 207.373 143.751 205.689 145.682C204.005 147.613 202.696 149.937 201.85 152.498C201.255 157.747 202.325 163.067 204.861 167.475C206.68 172.539 209.65 176.939 213.458 180.21C221.087 185.642 230.93 181.26 238.996 176.811L283.674 152.276C286.742 150.981 289.425 148.7 291.408 145.7C292.643 142.934 293.275 139.861 293.248 136.748C294.302 123.918 293.714 110.978 291.501 98.347C289.239 85.6438 283.525 74.1075 275.194 65.4187C265.285 56.7609 253.414 51.6163 241.023 50.6104C228.793 48.894 216.329 49.0487 204.174 46.5717C199.616 45.9249 195.239 44.1155 191.361 41.2744C188.234 38.2522 185.383 34.8691 182.852 31.1778C156.439 -1.58902 107.138 28.3036 99.6652 65.9167Z" fill="#D16111"/>
</g>
<g style="mix-blend-mode:multiply" opacity="0.5">
<path d="M208.415 113.586C208.695 115.109 209.401 116.493 210.429 117.536C211.458 118.58 212.756 119.229 214.136 119.39C215.12 119.599 216.129 119.616 217.118 119.442C223.515 118.427 229.369 114.85 233.598 109.372C234.969 107.238 235.708 104.674 235.708 102.043C235.708 99.4115 234.969 96.8471 233.598 94.7126C232.754 93.4738 231.552 92.6036 230.199 92.252C228.853 92.1842 227.516 92.5323 226.335 93.2581C225.153 93.984 224.172 95.0599 223.499 96.3682C222.184 98.9977 220.54 101.403 218.618 103.51C216.663 104.865 214.571 105.955 212.387 106.756C211.136 107.226 210.063 108.157 209.342 109.397C208.621 110.636 208.294 112.112 208.415 113.586Z" fill="#D16111"/>
</g>
<g style="mix-blend-mode:multiply" opacity="0.5">
<path d="M113.751 106.22C111.499 111.171 110.634 116.867 111.283 122.46C111.76 125.167 112.809 127.684 113.207 130.397C113.796 134.397 113.145 139.194 115.64 141.901C116.478 142.712 117.483 143.231 118.548 143.402C119.613 143.572 120.696 143.388 121.68 142.869C123.64 141.787 125.295 140.037 126.44 137.834C128.992 133.344 130.235 127.957 129.973 122.521C129.271 118.44 129.166 114.242 129.665 110.118C131.263 105.952 133.704 102.338 136.764 99.6089C142.08 93.3429 145.859 75.5328 133.831 79.038C125.095 81.6229 117.244 97.227 113.751 106.22Z" fill="#D16111"/>
</g>
<g style="mix-blend-mode:multiply" opacity="0.5">
<path d="M95.4698 102.508C98.2654 108.267 99.4488 114.887 98.8569 121.456C97.7628 129.402 92.8217 137.206 95.1496 144.788C96.2728 148.431 98.9267 151.198 100.184 154.78C102.896 162.477 98.5483 170.799 95.0274 178.038C88.8719 188.764 86.645 201.877 88.8353 214.5C91.9081 226.715 104.333 236.162 114.244 230.66C123.654 225.428 125.691 210.366 122.391 198.905C118.748 186.226 111.026 168.241 126.396 160.982C137.063 155.945 148.406 164.214 153.416 174.826C154.952 179.448 157.668 183.42 161.203 186.212C169.036 190.656 178.039 180.617 186.594 182.603C200.94 185.93 201.621 211.227 203.908 223.88C204.655 227.269 205.013 230.758 204.973 234.256C204.297 247.757 192.606 256.477 181.927 262.012C170.264 268.016 158.196 272.907 145.845 276.637C134.341 281.725 121.85 283.053 109.737 280.475C97.6253 277.898 86.3593 271.515 77.1727 262.025C66.6973 252.962 56.3442 242.067 52.6778 227.516C50.1862 215.02 51.1324 201.934 55.3839 190.091C58.0401 183.158 59.8837 175.846 60.866 168.348C60.9004 159.699 59.4114 151.133 56.4897 143.172C51.252 125.772 50.088 108.117 62.4083 94.0708C73.6926 81.2299 88.9518 87.4314 95.4698 102.508Z" fill="#D16111"/>
</g>
<g style="mix-blend-mode:multiply" opacity="0.5">
<path d="M186.188 159.442C186.556 150.87 172.086 148.449 167.545 151.644C157.879 158.449 162.718 170.899 172.641 170.773C175.692 170.872 178.712 170 181.396 168.246C182.724 167.353 183.853 166.085 184.687 164.552C185.522 163.02 186.037 161.266 186.188 159.442Z" fill="#D16111"/>
</g>
<g style="mix-blend-mode:multiply" opacity="0.2">
<path d="M182.941 274.267C155.979 274.3 129.58 266.585 106.916 252.049C84.2527 237.513 66.2875 216.774 55.1787 192.324C44.07 167.874 40.2904 140.752 44.2935 114.215C48.2967 87.6792 59.9126 62.8574 77.7459 42.7316C62.3708 54.7113 49.6812 69.7568 40.4909 86.9031C31.3006 104.049 25.8125 122.918 24.3784 142.299C22.9444 161.68 25.596 181.145 32.1634 199.446C38.7309 217.747 49.0693 234.48 62.5153 248.572C75.9612 262.664 92.2179 273.804 110.243 281.277C128.268 288.749 147.663 292.391 167.185 291.967C186.707 291.543 205.925 287.063 223.605 278.814C241.285 270.566 257.038 258.731 269.854 244.069C245.149 263.629 214.51 274.275 182.941 274.267Z" fill="#222226"/>
</g>
<g style="mix-blend-mode:overlay" opacity="0.39">
<path d="M164.478 12C142.401 12.0028 120.643 17.3029 101.011 27.4604C80.333 52.2472 68.8125 83.4623 68.4019 115.815C67.9913 148.168 78.7159 179.669 98.7585 204.978C118.801 230.288 146.929 247.849 178.374 254.686C209.819 261.524 242.648 257.216 271.296 242.493C288.387 222.045 299.316 197.112 302.797 170.629C306.278 144.146 302.167 117.213 290.946 93.0006C279.725 68.7878 261.862 48.3015 239.457 33.9519C217.053 19.6023 191.04 11.9864 164.478 12Z" fill="white"/>
</g>
</g>
<defs>
<filter id="filter0_d_150_3056" x="0" y="0" width="328" height="328" filterUnits="userSpaceOnUse" color-interpolation-filters="sRGB">
<feFlood flood-opacity="0" result="BackgroundImageFix"/>
<feColorMatrix in="SourceAlpha" type="matrix" values="0 0 0 0 0 0 0 0 0 0 0 0 0 0 0 0 0 0 127 0" result="hardAlpha"/>
<feOffset dy="12"/>
<feGaussianBlur stdDeviation="12"/>
<feColorMatrix type="matrix" values="0 0 0 0 0.976471 0 0 0 0 0.521569 0 0 0 0 0 0 0 0 0.25 0"/>
<feBlend mode="normal" in2="BackgroundImageFix" result="effect1_dropShadow_150_3056"/>
<feBlend mode="normal" in="SourceGraphic" in2="effect1_dropShadow_150_3056" result="shape"/>
</filter>
<linearGradient id="paint0_linear_150_3056" x1="25.7076" y1="152.854" x2="304" y2="152.854" gradientUnits="userSpaceOnUse">
<stop stop-color="#FFA000"/>
<stop offset="1" stop-color="#FF3D00"/>
</linearGradient>
<clipPath id="clip0_150_3056">
<rect width="280" height="280" fill="white" transform="translate(24 12)"/>
</clipPath>
</defs>
</svg>
